# Blender v2.77 (sub 0) OBJ File: 'Barrel_bucket.blend'
# www.blender.org
mtllib bucket.mtl
o Cube.002_Cube.000
v 0.473587 0.326295 -0.273425
v 0.473587 0.326295 0.273426
v 0.513194 0.313338 0.296293
v 0.513194 0.313338 -0.296294
v -0.400928 -0.269940 0.231476
v -0.400928 -0.269938 -0.231476
v -0.434459 -0.281872 -0.250836
v -0.434459 -0.281872 0.250836
v 0.380111 -0.385649 -0.219457
v -0.000001 -0.385649 -0.438913
v -0.000001 -0.376434 -0.475622
v 0.411900 -0.376434 -0.237812
v -0.451772 0.205051 0.260830
v -0.000001 0.205051 0.521663
v -0.000001 0.216753 0.565292
v -0.489557 0.216753 0.282646
v -0.000001 0.326295 0.546851
v -0.473587 0.326295 0.273426
v -0.513196 0.313338 0.296293
v -0.000001 0.313338 0.592586
v 0.400929 -0.269938 -0.231476
v 0.400929 -0.269940 0.231476
v 0.434460 -0.281872 0.250836
v 0.434460 -0.281872 -0.250836
v 0.451773 0.205051 0.260832
v 0.451773 0.205052 -0.260831
v 0.489557 0.216753 -0.282646
v 0.489556 0.216753 0.282646
v -0.000001 0.326295 -0.546852
v -0.000001 0.313338 -0.592587
v -0.000001 -0.269940 0.462953
v -0.000001 -0.281872 0.501671
v -0.380111 -0.385649 -0.219456
v -0.411901 -0.376434 -0.237812
v -0.451772 0.205052 -0.260831
v -0.489557 0.216753 -0.282646
v -0.000001 -0.269938 -0.462952
v -0.000001 -0.281872 -0.501671
v -0.000001 0.216753 -0.565291
v -0.513196 0.313338 -0.296294
v -0.000001 -0.376434 0.475621
v -0.411901 -0.376434 0.237810
v 0.411900 -0.376434 0.237810
v -0.000001 0.205052 -0.521663
v -0.380111 -0.385650 0.219456
v -0.000001 -0.385650 0.438913
v -0.473587 0.326295 -0.273425
v 0.380111 -0.385650 0.219456
v 0.480124 0.569701 0.277200
v 0.480124 0.569701 -0.277199
v 0.425071 0.569701 -0.245415
v 0.425071 0.569701 0.245414
v -0.000001 0.569701 0.554400
v -0.000001 0.569701 0.490829
v -0.480125 0.569701 0.277200
v -0.425070 0.569701 0.245414
v -0.480125 0.569701 -0.277199
v -0.425070 0.569701 -0.245415
v -0.000001 0.569701 -0.554400
v -0.000001 0.569701 -0.490829
v -0.497399 0.550196 0.287173
v -0.497399 0.550196 -0.287174
v -0.359179 -0.584480 -0.207372
v -0.359179 -0.584480 0.207372
v -0.000001 0.550151 -0.465845
v -0.403434 0.550151 -0.232922
v -0.290489 -0.482398 -0.167715
v -0.000001 -0.482398 -0.335430
v -0.000001 -0.584480 -0.414743
v -0.000001 0.550196 -0.574347
v 0.497399 0.550196 -0.287174
v 0.359179 -0.584480 -0.207372
v 0.359179 -0.584480 0.207372
v -0.000001 -0.584480 0.414743
v -0.403434 0.550151 0.232923
v -0.000001 0.550151 0.465845
v -0.000001 -0.482398 0.335428
v -0.290489 -0.482398 0.167714
v 0.403433 0.550151 0.232923
v 0.403433 0.550151 -0.232922
v 0.290490 -0.482398 -0.167715
v 0.290490 -0.482398 0.167714
v 0.497399 0.550196 0.287173
v -0.000001 0.550196 0.574347
vt 0.406198 0.269766
vt 0.522778 0.269766
vt 0.522778 0.279245
vt 0.406198 0.279245
vt 0.521845 0.383934
vt 0.405031 0.383934
vt 0.405031 0.373807
vt 0.521845 0.373807
vt 0.872278 0.330267
vt 0.989090 0.330267
vt 0.989090 0.339399
vt 0.872278 0.339399
vt 0.755933 0.319202
vt 0.639356 0.319202
vt 0.639356 0.309790
vt 0.755933 0.309790
vt 0.639356 0.269766
vt 0.755933 0.269766
vt 0.755933 0.279245
vt 0.639356 0.279245
vt 0.872278 0.383934
vt 0.755466 0.383934
vt 0.755466 0.373807
vt 0.872278 0.373807
vt 0.522778 0.319202
vt 0.406198 0.319202
vt 0.406198 0.309790
vt 0.522778 0.309790
vt 0.289621 0.269766
vt 0.289621 0.279245
vt 0.638655 0.383934
vt 0.638655 0.373807
vt 0.288221 0.330267
vt 0.405031 0.330267
vt 0.405031 0.339399
vt 0.288221 0.339399
vt 0.872513 0.319202
vt 0.872513 0.309790
vt 0.989090 0.383934
vt 0.989090 0.373805
vt 0.289621 0.309790
vt 0.872513 0.279245
vt 0.989090 0.279245
vt 0.989090 0.309790
vt 0.638655 0.339399
vt 0.521845 0.339399
vt 0.755466 0.339399
vt 0.288221 0.373807
vt 0.289621 0.319202
vt 0.521845 0.330267
vt 0.638655 0.330267
vt 0.872513 0.269766
vt 0.755466 0.330267
vt 0.288221 0.383934
vt 0.989090 0.319202
vt 0.989090 0.269766
vt 0.299355 0.132482
vt 0.365823 0.018780
vt 0.373204 0.031721
vt 0.314684 0.132771
vt 0.364862 0.250155
vt 0.372960 0.236341
vt 0.501825 0.250155
vt 0.493505 0.236341
vt 0.567288 0.131088
vt 0.551737 0.131647
vt 0.496677 0.018780
vt 0.489629 0.031721
vt 0.615812 0.996055
vt 0.479353 0.996055
vt 0.479353 0.711085
vt 0.615812 0.711085
vt 0.365639 0.996055
vt 0.479353 0.996055
vt 0.479353 0.711085
vt 0.365639 0.711085
vt 0.365639 0.711085
vt 0.365639 0.996055
vt 0.231094 0.996055
vt 0.231094 0.711085
vt 0.223977 0.932161
vt 0.114441 0.995402
vt 0.114408 0.733973
vt 0.223480 0.796946
vt 0.004906 0.932161
vt 0.005336 0.796946
vt 0.615812 0.996055
vt 0.748443 0.996055
vt 0.748443 0.711085
vt 0.615812 0.711085
vt 0.872573 0.996055
vt 0.996703 0.996055
vt 0.996703 0.711085
vt 0.872573 0.711085
vt 0.231094 0.996055
vt 0.231094 0.711085
vt 0.362264 0.012466
vt 0.500130 0.012466
vt 0.291912 0.132316
vt 0.360896 0.256853
vt 0.505857 0.256853
vt 0.574860 0.130776
vt 0.485898 0.038500
vt 0.377005 0.038500
vt 0.322667 0.132940
vt 0.377190 0.229176
vt 0.489199 0.229176
vt 0.543644 0.131968
vt 0.748443 0.711085
vt 0.748443 0.996055
vt 0.996703 0.711085
vt 0.996703 0.996055
vt 0.872573 0.996055
vt 0.872573 0.711085
vt 0.114441 0.995402
vt 0.114408 0.733973
vt 0.223480 0.796946
vt 0.223977 0.932161
vt 0.004906 0.932161
vt 0.005336 0.796946
vn 0.236100 0.962100 -0.136300
vn 0.236100 0.962100 0.136300
vn 0.789300 0.411600 0.455700
vn 0.789300 0.411600 -0.455700
vn -0.255100 0.955600 0.147300
vn -0.255100 0.955600 -0.147300
vn -0.791300 0.406300 -0.456900
vn -0.791300 0.406300 0.456900
vn 0.210900 -0.969900 -0.121700
vn 0.000000 -0.969900 -0.243500
vn 0.000000 -0.642300 -0.766500
vn 0.663800 -0.642300 -0.383200
vn -0.224300 -0.965900 0.129500
vn 0.000000 -0.965900 0.259000
vn 0.000000 -0.640300 0.768100
vn -0.665200 -0.640300 0.384100
vn 0.000000 0.962100 0.272600
vn -0.236000 0.962100 0.136300
vn -0.789300 0.411600 0.455700
vn 0.000000 0.411600 0.911400
vn 0.255100 0.955600 -0.147300
vn 0.255100 0.955600 0.147300
vn 0.791300 0.406300 0.456900
vn 0.791300 0.406300 -0.456900
vn 0.224300 -0.965900 0.129500
vn 0.224300 -0.965900 -0.129500
vn 0.665200 -0.640300 -0.384100
vn 0.665200 -0.640300 0.384100
vn 0.000000 0.962100 -0.272600
vn 0.000000 0.411600 -0.911400
vn -0.000000 0.955600 0.294500
vn -0.000000 0.406300 0.913700
vn -0.210900 -0.969900 -0.121700
vn -0.663800 -0.642300 -0.383200
vn -0.224300 -0.965900 -0.129500
vn -0.665200 -0.640300 -0.384100
vn -0.000000 0.955600 -0.294500
vn -0.000000 0.406300 -0.913800
vn -0.000000 -0.640300 -0.768100
vn -0.789300 0.411600 -0.455700
vn -0.000000 -0.642300 0.766500
vn -0.663800 -0.642300 0.383200
vn 0.663800 -0.642300 0.383200
vn -0.000000 -0.965900 -0.259000
vn -0.210900 -0.969900 0.121700
vn 0.000000 -0.969900 0.243500
vn -0.236000 0.962100 -0.136300
vn 0.210900 -0.969900 0.121800
vn 0.410600 0.880400 0.237100
vn 0.410600 0.880400 -0.237100
vn -0.193100 0.974800 0.111500
vn -0.193100 0.974800 -0.111500
vn -0.000000 0.880400 0.474200
vn 0.000000 0.974800 -0.223000
vn -0.410600 0.880400 0.237100
vn 0.193100 0.974800 -0.111500
vn -0.410600 0.880400 -0.237100
vn 0.193100 0.974800 0.111500
vn -0.000000 0.880400 -0.474200
vn 0.000000 0.974800 0.223000
vn -0.829900 0.285600 0.479200
vn -0.829900 0.285600 -0.479200
vn -0.992700 -0.120900 -0.000000
vn 0.000000 0.554600 0.832100
vn 0.720600 0.554600 0.416100
vn 0.859200 0.125300 0.496100
vn 0.000000 0.125300 0.992100
vn 0.496300 -0.120900 -0.859700
vn -0.000000 0.285700 -0.958300
vn 0.829900 0.285700 -0.479200
vn 0.000000 -1.000000 -0.000000
vn 0.720600 0.554600 -0.416100
vn 0.000000 0.554600 -0.832100
vn 0.000000 0.125300 -0.992100
vn 0.859200 0.125300 -0.496100
vn -0.720600 0.554600 -0.416100
vn -0.720600 0.554600 0.416100
vn -0.859200 0.125300 0.496100
vn -0.859200 0.125300 -0.496100
vn 0.829900 0.285700 0.479200
vn -0.000000 0.285600 0.958300
vn -0.496300 -0.120900 -0.859700
vn -0.496300 -0.120900 0.859700
vn 0.992700 -0.120900 -0.000000
vn 0.496300 -0.120900 0.859700
vn 0.000000 1.000000 0.000000
usemtl None.002
s 1
f 1/1/1 2/2/2 3/3/3 4/4/4
f 5/5/5 6/6/6 7/7/7 8/8/8
f 9/9/9 10/10/10 11/11/11 12/12/12
f 13/13/13 14/14/14 15/15/15 16/16/16
f 17/17/17 18/18/18 19/19/19 20/20/20
f 21/21/21 22/22/22 23/23/23 24/24/24
f 25/25/25 26/26/26 27/27/27 28/28/28
f 29/29/29 1/1/1 4/4/4 30/30/30
f 31/31/31 5/5/5 8/8/8 32/32/32
f 10/33/10 33/34/33 34/35/34 11/36/11
f 35/37/35 13/13/13 16/16/16 36/38/36
f 37/39/37 21/21/21 24/24/24 38/40/38
f 39/41/39 30/30/30 4/4/4 27/27/27
f 15/15/15 20/20/20 19/19/19 16/16/16
f 27/27/27 4/4/4 3/3/3 28/28/28
f 16/16/16 19/19/19 40/42/40 36/38/36
f 28/28/28 3/3/3 20/20/20 15/15/15
f 36/38/36 40/42/40 30/43/30 39/44/39
f 11/11/11 38/40/38 24/24/24 12/12/12
f 41/45/41 32/32/32 8/8/8 42/46/42
f 12/12/12 24/24/24 23/23/23 43/47/43
f 42/46/42 8/8/8 7/7/7 34/35/34
f 43/47/43 23/23/23 32/32/32 41/45/41
f 34/35/34 7/7/7 38/48/38 11/36/11
f 26/26/26 44/49/44 39/41/39 27/27/27
f 45/50/45 46/51/46 41/45/41 42/46/42
f 22/22/22 31/31/31 32/32/32 23/23/23
f 18/18/18 47/52/47 40/42/40 19/19/19
f 48/53/48 9/9/9 12/12/12 43/47/43
f 6/6/6 37/54/37 38/48/38 7/7/7
f 2/2/2 17/17/17 20/20/20 3/3/3
f 44/55/44 35/37/35 36/38/36 39/44/39
f 33/34/33 45/50/45 42/46/42 34/35/34
f 47/52/47 29/56/29 30/43/30 40/42/40
f 14/14/14 25/25/25 28/28/28 15/15/15
f 46/51/46 48/53/48 43/47/43 41/45/41
f 49/57/49 50/58/50 51/59/51 52/60/52
f 53/61/53 49/57/49 52/60/52 54/62/54
f 55/63/55 53/61/53 54/62/54 56/64/56
f 57/65/57 55/63/55 56/64/56 58/66/58
f 59/67/59 57/65/57 58/66/58 60/68/60
f 61/69/61 62/70/62 63/71/63 64/72/63
f 65/73/64 66/74/65 67/75/66 68/76/67
f 69/77/68 70/78/69 71/79/70 72/80/68
f 50/58/50 59/67/59 60/68/60 51/59/51
f 73/81/71 74/82/71 69/83/71 72/84/71
f 74/82/71 64/85/71 63/86/71 69/83/71
f 75/87/72 76/88/73 77/89/74 78/90/75
f 79/91/76 80/92/77 81/93/78 82/94/79
f 80/95/77 65/73/64 68/76/67 81/96/78
f 66/74/65 75/87/72 78/90/75 67/75/66
f 76/88/73 79/91/76 82/94/79 77/89/74
f 71/97/70 70/98/69 59/67/59 50/58/50
f 83/99/80 71/97/70 50/58/50 49/57/49
f 84/100/81 83/99/80 49/57/49 53/61/53
f 61/101/61 84/100/81 53/61/53 55/63/55
f 62/102/62 61/101/61 55/63/55 57/65/57
f 70/98/69 62/102/62 57/65/57 59/67/59
f 51/59/51 60/68/60 65/103/64 80/104/77
f 52/60/52 51/59/51 80/104/77 79/105/76
f 54/62/54 52/60/52 79/105/76 76/106/73
f 56/64/56 54/62/54 76/106/73 75/107/72
f 58/66/58 56/64/56 75/107/72 66/108/65
f 60/68/60 58/66/58 66/108/65 65/103/64
f 62/70/62 70/78/69 69/77/82 63/71/82
f 74/109/83 84/110/81 61/69/61 64/72/83
f 72/111/84 71/112/70 83/113/80 73/114/84
f 73/114/85 83/113/80 84/110/81 74/109/85
f 77/115/86 68/116/86 67/117/86 78/118/86
f 82/119/86 81/120/86 68/116/86 77/115/86
